<?xml version="1.0" encoding="UTF-8" standalone="no"?>
<svg xmlns:rdf="http://www.w3.org/1999/02/22-rdf-syntax-ns#" xmlns="http://www.w3.org/2000/svg" xml:space="preserve" height="57.97" viewBox="0 0 83.190003 57.970001" width="83.19" version="1.1" xmlns:cc="http://creativecommons.org/ns#" xmlns:dc="http://purl.org/dc/elements/1.1/"><defs><clipPath id="cy" clipPathUnits="userSpaceOnUse"><path d="m275.29 476.93h62.954v-42.78h-62.954v42.78z"/></clipPath><clipPath id="cx" clipPathUnits="userSpaceOnUse"><path d="m306.48 476.93c-17.251-0.106-31.191-9.743-31.191-21.367 0-11.691 14.095-21.413 31.477-21.413 17.383 0 31.477 9.722 31.477 21.413 0 11.624-13.939 21.261-31.19 21.367h-0.573z"/></clipPath><clipPath id="cw" clipPathUnits="userSpaceOnUse"><path d="m-32768 32767h65535v-65535h-65535v65535z"/></clipPath><clipPath id="cv" clipPathUnits="userSpaceOnUse"><path d="m275.29 476.93h62.954v-42.781h-62.954v42.781z"/></clipPath><clipPath id="cu" clipPathUnits="userSpaceOnUse"><path d="m275.29 476.93h62.954v-42.78h-62.954v42.78z"/></clipPath><radialGradient id="g" gradientUnits="userSpaceOnUse" cy="0" cx="0" gradientTransform="matrix(64.525 0 0 -45.627 306.77 476.92)" r="1"><stop stop-opacity=".8" stop-color="#fff" offset="0"/><stop stop-opacity="0" stop-color="#fff" offset="1"/></radialGradient><mask id="j" height="1" width="1" y="0" x="0" maskUnits="userSpaceOnUse"><g clip-path="url(#cw)"><g clip-path="url(#cv)"><path d="m-16383-16383h32766v32766h-32766v-32766z"/><g clip-path="url(#cu)"><path fill="url(#g)" d="m275.29 476.93h62.954v-42.781h-62.954v42.781z"/></g></g></g></mask><clipPath id="ct" clipPathUnits="userSpaceOnUse"><path d="m275.29 476.93h62.954v-42.78h-62.954v42.78z"/></clipPath><radialGradient id="f" gradientUnits="userSpaceOnUse" cy="0" cx="0" gradientTransform="matrix(64.525 0 0 -45.627 306.77 476.92)" r="1"><stop stop-color="#fff" offset="0"/><stop stop-color="#fff" offset="1"/></radialGradient><clipPath id="cs" clipPathUnits="userSpaceOnUse"><path d="m276.49 475.9h60.55v-40.681h-60.55v40.681z"/></clipPath><radialGradient id="e" gradientUnits="userSpaceOnUse" cy="0" cx="0" gradientTransform="matrix(34.911 0 0 -22.639 307.32 458.56)" r="1"><stop stop-color="#245093" offset="0"/><stop stop-color="#11234a" offset="1"/></radialGradient><clipPath id="cr" clipPathUnits="userSpaceOnUse"><path d="m276.49 475.9h60.551v-40.681h-60.551v40.681z"/></clipPath><clipPath id="cq" clipPathUnits="userSpaceOnUse"><path d="m276.49 455.56c0-11.263 13.526-20.342 30.276-20.342 16.749 0 30.276 9.079 30.276 20.342 0 11.261-13.527 20.339-30.276 20.339-16.75 0-30.276-9.078-30.276-20.339"/></clipPath><clipPath id="cp" clipPathUnits="userSpaceOnUse"><path d="m-32768 32767h65535v-65535h-65535v65535z"/></clipPath><clipPath id="co" clipPathUnits="userSpaceOnUse"><path d="m276.5 475.9h60.551v-40.681h-60.551v40.681z"/></clipPath><clipPath id="cn" clipPathUnits="userSpaceOnUse"><path d="m276.49 475.9h60.551v-40.681h-60.551v40.681z"/></clipPath><radialGradient id="d" gradientUnits="userSpaceOnUse" cy="0" cx="0" gradientTransform="matrix(34.911 0 0 -21.419 307.21 467.87)" r="1"><stop stop-opacity=".8" stop-color="#fff" offset="0"/><stop stop-opacity="0" stop-color="#fff" offset="1"/></radialGradient><mask id="i" height="1" width="1" y="0" x="0" maskUnits="userSpaceOnUse"><g clip-path="url(#cp)"><g clip-path="url(#co)"><path d="m-16383-16383h32766v32766h-32766v-32766z"/><g clip-path="url(#cn)"><path fill="url(#d)" d="m276.5 475.9h60.551v-40.681h-60.551v40.681z"/></g></g></g></mask><clipPath id="cm" clipPathUnits="userSpaceOnUse"><path d="m276.49 475.9h60.551v-40.681h-60.551v40.681z"/></clipPath><radialGradient id="c" gradientUnits="userSpaceOnUse" cy="0" cx="0" gradientTransform="matrix(34.911 0 0 -21.419 307.21 467.87)" r="1"><stop stop-color="#245093" offset="0"/><stop stop-color="#11234a" offset="1"/></radialGradient><clipPath id="cl" clipPathUnits="userSpaceOnUse"><path d="m276.49 475.9h60.551v-40.681h-60.551v40.681z"/></clipPath><clipPath id="ck" clipPathUnits="userSpaceOnUse"><path d="m276.49 455.56c0-11.263 13.526-20.342 30.276-20.342 16.749 0 30.276 9.079 30.276 20.342 0 11.261-13.527 20.339-30.276 20.339-16.75 0-30.276-9.078-30.276-20.339"/></clipPath><clipPath id="cj" clipPathUnits="userSpaceOnUse"><path d="m-32768 32767h65535v-65535h-65535v65535z"/></clipPath><clipPath id="ci" clipPathUnits="userSpaceOnUse"><path d="m276.5 475.9h60.551v-40.681h-60.551v40.681z"/></clipPath><clipPath id="ch" clipPathUnits="userSpaceOnUse"><path d="m276.49 475.9h60.551v-40.681h-60.551v40.681z"/></clipPath><radialGradient id="b" gradientUnits="userSpaceOnUse" cy="0" cx="0" gradientTransform="matrix(55.291 0 0 -37.279 307.32 458.56)" r="1"><stop stop-opacity="0" stop-color="#fff" offset="0"/><stop stop-opacity="0" stop-color="#fff" offset=".63136"/><stop stop-color="#fff" offset="1"/></radialGradient><mask id="h" height="1" width="1" y="0" x="0" maskUnits="userSpaceOnUse"><g clip-path="url(#cj)"><g clip-path="url(#ci)"><path d="m-16383-16383h32766v32766h-32766v-32766z" fill="#fff"/><g clip-path="url(#ch)"><path fill="url(#b)" d="m276.5 475.9h60.551v-40.681h-60.551v40.681z"/></g></g></g></mask><clipPath id="cg" clipPathUnits="userSpaceOnUse"><path d="m276.49 475.9h60.551v-40.681h-60.551v40.681z"/></clipPath><radialGradient id="a" gradientUnits="userSpaceOnUse" cy="0" cx="0" gradientTransform="matrix(55.291 0 0 -37.279 307.32 458.56)" r="1"><stop stop-color="#245093" offset="0"/><stop stop-color="#245093" offset=".63136"/><stop stop-color="#11234a" offset="1"/></radialGradient><clipPath id="cf" clipPathUnits="userSpaceOnUse"><path d="m283.27 455.28 1.9359 1.9359 1.936-1.936-1.9359-1.9359-1.936 1.936z"/></clipPath><linearGradient id="au" gradientUnits="userSpaceOnUse" gradientTransform="matrix(1.5133 1.5133 1.5133 -1.5133 284.44 454.12)"><stop stop-color="#656894" offset="0"/><stop stop-color="#fff" offset="1"/></linearGradient><clipPath id="ce" clipPathUnits="userSpaceOnUse"><path d="m290.71 455.28 1.9352 1.9352 1.9352-1.9352-1.9352-1.9352-1.9352 1.9352z"/></clipPath><linearGradient id="at" gradientUnits="userSpaceOnUse" gradientTransform="matrix(1.5136 1.5136 1.5136 -1.5136 291.87 454.12)"><stop stop-color="#656894" offset="0"/><stop stop-color="#fff" offset="1"/></linearGradient><clipPath id="cd" clipPathUnits="userSpaceOnUse"><path d="m286.98 455.28 1.936 1.936 1.936-1.936-1.936-1.936-1.9359 1.936z"/></clipPath><linearGradient id="as" gradientUnits="userSpaceOnUse" gradientTransform="matrix(1.4855 1.4855 1.4855 -1.4855 288.17 454.09)"><stop stop-color="#656894" offset="0"/><stop stop-color="#fff" offset="1"/></linearGradient><clipPath id="cc" clipPathUnits="userSpaceOnUse"><path d="m294.31 455.28 1.9359 1.9359 1.9359-1.9359-1.9359-1.9359-1.9359 1.9359z"/></clipPath><linearGradient id="ar" gradientUnits="userSpaceOnUse" gradientTransform="matrix(1.4855 1.4855 1.4855 -1.4855 295.5 454.09)"><stop stop-color="#656894" offset="0"/><stop stop-color="#fff" offset="1"/></linearGradient><clipPath id="cb" clipPathUnits="userSpaceOnUse"><path d="m297.27 449.59v-0.89825h-14.829v0.89825h14.829z"/></clipPath><linearGradient id="aq" gradientUnits="userSpaceOnUse" gradientTransform="matrix(0 -.89883 -.89883 0 289.85 449.59)"><stop stop-color="#9998ba" offset="0"/><stop stop-color="#fff" offset="1"/></linearGradient><clipPath id="ca" clipPathUnits="userSpaceOnUse"><path d="m297.98 461.09v-0.89823h-15.673v0.89823h15.673z"/></clipPath><linearGradient id="ap" gradientUnits="userSpaceOnUse" gradientTransform="matrix(0 -.89813 -.89813 0 290.15 461.09)"><stop stop-color="#656894" offset="0"/><stop stop-color="#fff" offset="1"/></linearGradient><clipPath id="bz" clipPathUnits="userSpaceOnUse"><path d="m315.43 455.28 1.9359 1.9359 1.9359-1.9359-1.9359-1.9359-1.9359 1.9359z"/></clipPath><linearGradient id="ao" gradientUnits="userSpaceOnUse" gradientTransform="matrix(1.5143 1.5143 1.5143 -1.5143 316.6 454.12)"><stop stop-color="#656894" offset="0"/><stop stop-color="#fff" offset="1"/></linearGradient><clipPath id="by" clipPathUnits="userSpaceOnUse"><path d="m322.87 455.28 1.9352 1.9352 1.9352-1.9352-1.9352-1.9352-1.9352 1.9352z"/></clipPath><linearGradient id="an" gradientUnits="userSpaceOnUse" gradientTransform="matrix(1.5137 1.5137 1.5137 -1.5137 324.03 454.12)"><stop stop-color="#656894" offset="0"/><stop stop-color="#fff" offset="1"/></linearGradient><clipPath id="bx" clipPathUnits="userSpaceOnUse"><path d="m319.14 455.28 1.9352 1.9352 1.9352-1.9352-1.9352-1.9352-1.9352 1.9352z"/></clipPath><linearGradient id="am" gradientUnits="userSpaceOnUse" gradientTransform="matrix(1.4855 1.4855 1.4855 -1.4855 320.33 454.09)"><stop stop-color="#656894" offset="0"/><stop stop-color="#fff" offset="1"/></linearGradient><clipPath id="bw" clipPathUnits="userSpaceOnUse"><path d="m326.47 455.28 1.9352 1.9352 1.9352-1.9352-1.9352-1.9352-1.9352 1.9352z"/></clipPath><linearGradient id="al" gradientUnits="userSpaceOnUse" gradientTransform="matrix(1.4855 1.4855 1.4855 -1.4855 327.66 454.09)"><stop stop-color="#656894" offset="0"/><stop stop-color="#fff" offset="1"/></linearGradient><clipPath id="bv" clipPathUnits="userSpaceOnUse"><path d="m316.05 449.59v-0.89824h14.831v0.89824h-14.831z"/></clipPath><linearGradient id="ak" gradientUnits="userSpaceOnUse" gradientTransform="matrix(0 -.89883 .89883 0 323.47 449.59)"><stop stop-color="#9998ba" offset="0"/><stop stop-color="#fff" offset="1"/></linearGradient><clipPath id="bu" clipPathUnits="userSpaceOnUse"><path d="m315.33 461.09v-0.89822h15.676v0.89822h-15.676z"/></clipPath><linearGradient id="aj" gradientUnits="userSpaceOnUse" gradientTransform="matrix(0 -.89813 .89813 0 323.17 461.08)"><stop stop-color="#656894" offset="0"/><stop stop-color="#fff" offset="1"/></linearGradient><clipPath id="bt" clipPathUnits="userSpaceOnUse"><path d="m298.99 459.63v4.3668h15.549v-4.3668h-15.549z"/></clipPath><linearGradient id="ai" gradientUnits="userSpaceOnUse" gradientTransform="matrix(0 4.3678 4.3678 0 306.77 459.63)"><stop stop-color="#656894" offset="0"/><stop stop-color="#fff" offset="1"/></linearGradient><clipPath id="bs" clipPathUnits="userSpaceOnUse"><path d="m315.62 465.58v-2.1841h-17.888v2.1841h17.888z"/></clipPath><linearGradient id="ah" gradientUnits="userSpaceOnUse" gradientTransform="matrix(0 -2.1839 -2.1839 0 306.68 465.58)"><stop stop-color="#b8b6cf" offset="0"/><stop stop-color="#fff" offset="1"/></linearGradient><clipPath id="br" clipPathUnits="userSpaceOnUse"><path d="m297.98 465.41v-0.25317h-0.25174v0.25317h0.25174z"/></clipPath><linearGradient id="ag" gradientUnits="userSpaceOnUse" gradientTransform="matrix(0 -.25352 -.25352 0 297.86 465.41)"><stop stop-color="#b8b6cf" offset="0"/><stop stop-color="#fff" offset="1"/></linearGradient><clipPath id="bq" clipPathUnits="userSpaceOnUse"><path d="m298.82 465.41v-0.25317h-0.25175v0.25317h0.25175z"/></clipPath><linearGradient id="af" gradientUnits="userSpaceOnUse" gradientTransform="matrix(0 -.25352 -.25352 0 298.7 465.41)"><stop stop-color="#b8b6cf" offset="0"/><stop stop-color="#fff" offset="1"/></linearGradient><clipPath id="bp" clipPathUnits="userSpaceOnUse"><path d="m299.66 465.41v-0.25458h-0.25174v0.25458h0.25174z"/></clipPath><linearGradient id="ae" gradientUnits="userSpaceOnUse" gradientTransform="matrix(0 -.25421 -.25421 0 299.53 465.41)"><stop stop-color="#b8b6cf" offset="0"/><stop stop-color="#fff" offset="1"/></linearGradient><clipPath id="bo" clipPathUnits="userSpaceOnUse"><path d="m300.5 465.41v-0.25317h-0.25175v0.25317h0.25175z"/></clipPath><linearGradient id="ad" gradientUnits="userSpaceOnUse" gradientTransform="matrix(0 -.25352 -.25352 0 300.37 465.41)"><stop stop-color="#b8b6cf" offset="0"/><stop stop-color="#fff" offset="1"/></linearGradient><clipPath id="bn" clipPathUnits="userSpaceOnUse"><path d="m301.34 465.41v-0.25317h-0.25176v0.25317h0.25176z"/></clipPath><linearGradient id="ac" gradientUnits="userSpaceOnUse" gradientTransform="matrix(0 -.25352 -.25352 0 301.21 465.41)"><stop stop-color="#b8b6cf" offset="0"/><stop stop-color="#fff" offset="1"/></linearGradient><clipPath id="bm" clipPathUnits="userSpaceOnUse"><path d="m302.17 465.41v-0.25317h-0.25174v0.25317h0.25174z"/></clipPath><linearGradient id="ab" gradientUnits="userSpaceOnUse" gradientTransform="matrix(0 -.25352 -.25352 0 302.05 465.41)"><stop stop-color="#b8b6cf" offset="0"/><stop stop-color="#fff" offset="1"/></linearGradient><clipPath id="bl" clipPathUnits="userSpaceOnUse"><path d="m303.01 465.41v-0.25458h-0.25317v0.25458h0.25317z"/></clipPath><linearGradient id="aa" gradientUnits="userSpaceOnUse" gradientTransform="matrix(0 -.25421 -.25421 0 302.89 465.41)"><stop stop-color="#b8b6cf" offset="0"/><stop stop-color="#fff" offset="1"/></linearGradient><clipPath id="bk" clipPathUnits="userSpaceOnUse"><path d="m303.85 465.41v-0.25174h-0.25318v0.25174h0.25318z"/></clipPath><linearGradient id="z" gradientUnits="userSpaceOnUse" gradientTransform="matrix(0 -.25282 -.25282 0 303.73 465.41)"><stop stop-color="#b8b6cf" offset="0"/><stop stop-color="#fff" offset="1"/></linearGradient><clipPath id="bj" clipPathUnits="userSpaceOnUse"><path d="m304.69 465.41v-0.25317h-0.25175v0.25317h0.25175z"/></clipPath><linearGradient id="y" gradientUnits="userSpaceOnUse" gradientTransform="matrix(0 -.25352 -.25352 0 304.56 465.41)"><stop stop-color="#b8b6cf" offset="0"/><stop stop-color="#fff" offset="1"/></linearGradient><clipPath id="bi" clipPathUnits="userSpaceOnUse"><path d="m305.53 465.41v-0.25317h-0.25174v0.25317h0.25174z"/></clipPath><linearGradient id="x" gradientUnits="userSpaceOnUse" gradientTransform="matrix(0 -.25352 -.25352 0 305.4 465.41)"><stop stop-color="#b8b6cf" offset="0"/><stop stop-color="#fff" offset="1"/></linearGradient><clipPath id="bh" clipPathUnits="userSpaceOnUse"><path d="m306.37 465.41v-0.25458h-0.25173v0.25458h0.25173z"/></clipPath><linearGradient id="w" gradientUnits="userSpaceOnUse" gradientTransform="matrix(0 -.25421 -.25421 0 306.24 465.41)"><stop stop-color="#b8b6cf" offset="0"/><stop stop-color="#fff" offset="1"/></linearGradient><clipPath id="bg" clipPathUnits="userSpaceOnUse"><path d="m307.2 465.41v-0.25458h-0.25174v0.25458h0.25174z"/></clipPath><linearGradient id="v" gradientUnits="userSpaceOnUse" gradientTransform="matrix(0 -.25421 -.25421 0 307.08 465.41)"><stop stop-color="#b8b6cf" offset="0"/><stop stop-color="#fff" offset="1"/></linearGradient><clipPath id="bf" clipPathUnits="userSpaceOnUse"><path d="m308.04 465.41v-0.25317h-0.25175v0.25317h0.25175z"/></clipPath><linearGradient id="u" gradientUnits="userSpaceOnUse" gradientTransform="matrix(0 -.25352 -.25352 0 307.92 465.41)"><stop stop-color="#b8b6cf" offset="0"/><stop stop-color="#fff" offset="1"/></linearGradient><clipPath id="be" clipPathUnits="userSpaceOnUse"><path d="m308.88 465.41v-0.25317h-0.25175v0.25317h0.25175z"/></clipPath><linearGradient id="t" gradientUnits="userSpaceOnUse" gradientTransform="matrix(0 -.25352 -.25352 0 308.76 465.41)"><stop stop-color="#b8b6cf" offset="0"/><stop stop-color="#fff" offset="1"/></linearGradient><clipPath id="bd" clipPathUnits="userSpaceOnUse"><path d="m309.72 465.41v-0.25174h-0.25174v0.25174h0.25174z"/></clipPath><linearGradient id="s" gradientUnits="userSpaceOnUse" gradientTransform="matrix(0 -.25282 -.25282 0 309.59 465.41)"><stop stop-color="#b8b6cf" offset="0"/><stop stop-color="#fff" offset="1"/></linearGradient><clipPath id="bc" clipPathUnits="userSpaceOnUse"><path d="m310.56 465.41v-0.25458h-0.25174v0.25458h0.25174z"/></clipPath><linearGradient id="r" gradientUnits="userSpaceOnUse" gradientTransform="matrix(0 -.25421 -.25421 0 310.43 465.41)"><stop stop-color="#b8b6cf" offset="0"/><stop stop-color="#fff" offset="1"/></linearGradient><clipPath id="bb" clipPathUnits="userSpaceOnUse"><path d="m311.4 465.41v-0.25317h-0.25175v0.25317h0.25175z"/></clipPath><linearGradient id="q" gradientUnits="userSpaceOnUse" gradientTransform="matrix(0 -.25352 -.25352 0 311.27 465.41)"><stop stop-color="#b8b6cf" offset="0"/><stop stop-color="#fff" offset="1"/></linearGradient><clipPath id="ba" clipPathUnits="userSpaceOnUse"><path d="m312.23 465.41v-0.25317h-0.25175v0.25317h0.25175z"/></clipPath><linearGradient id="p" gradientUnits="userSpaceOnUse" gradientTransform="matrix(0 -.25352 -.25352 0 312.11 465.41)"><stop stop-color="#b8b6cf" offset="0"/><stop stop-color="#fff" offset="1"/></linearGradient><clipPath id="az" clipPathUnits="userSpaceOnUse"><path d="m313.07 465.41v-0.25317h-0.25174v0.25317h0.25174z"/></clipPath><linearGradient id="o" gradientUnits="userSpaceOnUse" gradientTransform="matrix(0 -.25352 -.25352 0 312.95 465.41)"><stop stop-color="#b8b6cf" offset="0"/><stop stop-color="#fff" offset="1"/></linearGradient><clipPath id="ay" clipPathUnits="userSpaceOnUse"><path d="m313.91 465.41v-0.25458h-0.25317v0.25458h0.25317z"/></clipPath><linearGradient id="n" gradientUnits="userSpaceOnUse" gradientTransform="matrix(0 -.25421 -.25421 0 313.78 465.41)"><stop stop-color="#b8b6cf" offset="0"/><stop stop-color="#fff" offset="1"/></linearGradient><clipPath id="ax" clipPathUnits="userSpaceOnUse"><path d="m314.75 465.41v-0.25317h-0.25318v0.25317h0.25318z"/></clipPath><linearGradient id="m" gradientUnits="userSpaceOnUse" gradientTransform="matrix(0 -.25352 -.25352 0 314.62 465.41)"><stop stop-color="#b8b6cf" offset="0"/><stop stop-color="#fff" offset="1"/></linearGradient><clipPath id="aw" clipPathUnits="userSpaceOnUse"><path d="m315.59 465.41v-0.25317h-0.25316v0.25317h0.25316z"/></clipPath><linearGradient id="l" gradientUnits="userSpaceOnUse" gradientTransform="matrix(0 -.25352 -.25352 0 315.46 465.41)"><stop stop-color="#b8b6cf" offset="0"/><stop stop-color="#fff" offset="1"/></linearGradient><clipPath id="av" clipPathUnits="userSpaceOnUse"><path d="m316.31 449.95v-1.499h-19.468v1.499h19.468z"/></clipPath><linearGradient id="k" gradientUnits="userSpaceOnUse" gradientTransform="matrix(0 -1.4988 -1.4988 0 306.58 449.95)"><stop stop-color="#9998ba" offset="0"/><stop stop-color="#fff" offset="1"/></linearGradient></defs><g transform="matrix(1.25 0 0 -1.25 -343.71 600.25)"><g transform="translate(.92752 .75888)"><g transform="translate(307.44 476.61)"><path d="m0 0c-16.806 0-30.479-9.138-30.479-20.369 0-11.255 13.673-20.414 30.479-20.414s30.479 9.159 30.479 20.414c0 11.231-13.673 20.369-30.479 20.369m0-42.779c-17.908 0-32.477 10.053-32.477 22.41 0 12.332 14.569 22.366 32.477 22.366 17.906 0 32.475-10.034 32.475-22.366 0-12.357-14.569-22.41-32.475-22.41" fill="#fff"/></g><g transform="translate(275.97 456.24)"><path d="m0 0c0 11.69 14.094 21.367 31.477 21.367s31.477-9.677 31.477-21.367-14.094-21.412-31.477-21.412-31.477 9.722-31.477 21.412" fill="#b8b6d0"/></g><g transform="translate(.67456 .67456)"><g style=""><g opacity=".5" clip-path="url(#cy)"><g style=""><g clip-path="url(#cx)"><g style=""><g mask="url(#j)"><g style=""><g clip-path="url(#ct)"><path d="m306.48 476.93c-17.251-0.106-31.191-9.743-31.191-21.367 0-11.691 14.095-21.413 31.477-21.413 17.383 0 31.477 9.722 31.477 21.413 0 11.624-13.939 21.261-31.19 21.367h-0.573z" fill="url(#f)"/></g></g></g></g></g></g></g></g></g><g transform="translate(.67456 .67456)"><g style=""><g clip-path="url(#cs)"><path d="m276.49 455.56c0-11.263 13.526-20.342 30.276-20.342 16.749 0 30.275 9.079 30.275 20.342 0 11.261-13.526 20.339-30.275 20.339-16.75 0-30.276-9.078-30.276-20.339" fill="url(#e)"/></g></g></g><g transform="translate(.67456 .67456)"><g style=""><g clip-path="url(#cr)"><g style=""><g clip-path="url(#cq)"><g style=""><g mask="url(#i)"><g style=""><g clip-path="url(#cm)"><path d="m276.49 455.56c0-11.263 13.526-20.342 30.276-20.342 16.749 0 30.276 9.079 30.276 20.342 0 11.261-13.527 20.339-30.276 20.339-16.75 0-30.276-9.078-30.276-20.339" fill="url(#c)"/></g></g></g></g></g></g></g></g></g><g transform="translate(.67456 .67456)"><g style=""><g opacity=".60001" clip-path="url(#cl)"><g style=""><g clip-path="url(#ck)"><g style=""><g mask="url(#h)"><g style=""><g clip-path="url(#cg)"><path d="m276.49 455.56c0-11.263 13.526-20.342 30.276-20.342 16.749 0 30.276 9.079 30.276 20.342 0 11.261-13.527 20.339-30.276 20.339-16.75 0-30.276-9.078-30.276-20.339" fill="url(#a)"/></g></g></g></g></g></g></g></g></g><g><path d="m316.04 463.73v1.412h-17.129v-1.584l-15.738 0.172 0.252-0.215v-13.23l15.232-0.044 32.616 0.044v13.23l0.19 0.215h-15.423z" fill="#b8b6d0"/><path d="m298.66 450.24v13.489h-15.485l0.252-0.214v-13.232l15.233-0.043z" fill="#fff"/><path d="m286.67 460h-1.769v-2.44h-0.253v-0.685h2.212v0.685h-0.19v2.44z" fill="#656894"/><path d="m286.78 460.09h-1.769v-2.484h-0.253v-0.643h2.212v0.643h-0.19v2.484z" fill="#fff"/><path d="m285.31 459.75h1.137v-2.227h-1.137v2.227z" fill="#656894"/><path d="m290.36 460h-1.769v-2.44h-0.253v-0.685h2.212v0.685h-0.19v2.44z" fill="#656894"/><path d="m290.46 460.09h-1.769v-2.484h-0.253v-0.643h2.211v0.643h-0.189v2.484z" fill="#fff"/><path d="m288.99 459.75h1.137v-2.227h-1.137v2.227z" fill="#656894"/><path d="m294.18 460h-1.769v-2.44h-0.255v-0.685h2.214v0.685h-0.19v2.44z" fill="#656894"/><path d="m294.29 460.09h-1.769v-2.484h-0.253v-0.643h2.212v0.643h-0.19v2.484z" fill="#fff"/><path d="m292.82 459.75h1.137v-2.227h-1.137v2.227z" fill="#656894"/><path d="m297.79 460h-1.769v-2.44h-0.253v-0.685h2.211v0.685h-0.189v2.44z" fill="#656894"/><path d="m297.89 460.09h-1.771v-2.484h-0.251v-0.643h2.211v0.643h-0.189v2.484z" fill="#fff"/><path d="m296.42 459.75h1.137v-2.227h-1.137v2.227z" fill="#656894"/><path d="m294.87 465h1.581v-1.327h-1.581v1.327z" fill="#fff"/></g><path d="m294.87 465h1.581v-1.327h-1.581v1.327z" stroke="#fff" stroke-miterlimit="3.864" stroke-width=".096" fill="none"/><path d="m284.65 463.68h2.339v-1.114h-2.339v1.114z" fill="#9998ba"/><path d="m284.65 463.68h2.339v-1.114h-2.339v1.114z" stroke="#fff" stroke-miterlimit="3.864" stroke-width=".096" fill="none"/><path d="m288.46 463.68h2.339v-1.114h-2.339v1.114z" fill="#9998ba"/><path d="m288.46 463.68h2.339v-1.114h-2.339v1.114z" stroke="#fff" stroke-miterlimit="3.864" stroke-width=".096" fill="none"/><path d="m292.26 463.68h2.339v-1.114h-2.339v1.114z" fill="#9998ba"/><path d="m292.26 463.68h2.339v-1.114h-2.339v1.114z" stroke="#fff" stroke-miterlimit="3.864" stroke-width=".096" fill="none"/><path d="m296.07 463.68h2.339v-1.114h-2.339v1.114z" fill="#9998ba"/><path d="m296.07 463.68h2.339v-1.114h-2.339v1.114z" stroke="#fff" stroke-miterlimit="3.864" stroke-width=".096" fill="none"/><path d="m284.44 455.29h2.464v-4.238h-2.464v4.238z" fill="#656894"/><path d="m284.44 455.29h2.464v-4.238h-2.464v4.238z" stroke="#fff" stroke-miterlimit="3.864" stroke-width=".096" fill="none"/><path d="m284.65 455.51h2.464v-4.239h-2.464v4.239z" fill="#fff"/><path d="m284.65 455.51h2.464v-4.239h-2.464v4.239z" stroke="#fff" stroke-miterlimit="3.864" stroke-width=".096" fill="none"/><path d="m285.22 454.95h1.327v-3.128h-1.327v3.128z" fill="#656894"/><g transform="translate(.67456 .67456)"><g style=""><g clip-path="url(#cf)"><path d="m283.72 454.83h2.971s-0.569 0.901-1.517 0.901c-1.012 0-1.454-0.901-1.454-0.901" fill="url(#au)"/></g></g></g><path d="m291.87 455.29h2.466v-4.238h-2.466v4.238z" fill="#656894"/><path d="m291.87 455.29h2.466v-4.238h-2.466v4.238z" stroke="#fff" stroke-miterlimit="3.864" stroke-width=".096" fill="none"/><path d="m292.09 455.51h2.464v-4.239h-2.464v4.239z" fill="#fff"/><path d="m292.09 455.51h2.464v-4.239h-2.464v4.239z" stroke="#fff" stroke-miterlimit="3.864" stroke-width=".096" fill="none"/><path d="m292.65 454.95h1.327v-3.128h-1.327v3.128z" fill="#656894"/><g transform="translate(.67456 .67456)"><g style=""><g clip-path="url(#ce)"><path d="m291.16 454.83h2.969s-0.568 0.901-1.515 0.901c-1.012 0-1.454-0.901-1.454-0.901" fill="url(#at)"/></g></g></g><path d="m288.14 455.29h2.466v-4.238h-2.466v4.238z" fill="#656894"/><path d="m288.14 455.29h2.466v-4.238h-2.466v4.238z" stroke="#fff" stroke-miterlimit="3.864" stroke-width=".096" fill="none"/><path d="m288.36 455.51h2.464v-4.239h-2.464v4.239z" fill="#fff"/><path d="m288.36 455.51h2.464v-4.239h-2.464v4.239z" stroke="#fff" stroke-miterlimit="3.864" stroke-width=".096" fill="none"/><path d="m288.92 454.95h1.327v-3.128h-1.327v3.128z" fill="#656894"/><g transform="translate(.67456 .67456)"><g style=""><g clip-path="url(#cd)"><path d="m287.43 454.83h2.97l-1.515 0.901-1.455-0.901z" fill="url(#as)"/></g></g></g><path d="m295.47 455.29h2.466v-4.238h-2.466v4.238z" fill="#656894"/><path d="m295.47 455.29h2.466v-4.238h-2.466v4.238z" stroke="#fff" stroke-miterlimit="3.864" stroke-width=".096" fill="none"/><path d="m295.69 455.51h2.466v-4.239h-2.466v4.239z" fill="#fff"/><path d="m295.69 455.51h2.466v-4.239h-2.466v4.239z" stroke="#fff" stroke-miterlimit="3.864" stroke-width=".096" fill="none"/><path d="m296.26 454.95h1.327v-3.128h-1.327v3.128z" fill="#656894"/><g transform="translate(.67456 .67456)"><g style=""><g clip-path="url(#cc)"><path d="m294.76 454.83h2.971l-1.518 0.901-1.453-0.901z" fill="url(#ar)"/></g></g></g><g transform="translate(.67456 .67456)"><g style=""><g clip-path="url(#cb)"><path d="m282.44 448.69h14.829v0.898h-14.829v-0.898z" fill="url(#aq)"/></g></g></g><path d="m297.94 449.36h-14.83v0.898h14.83v-0.898z" stroke="#fff" stroke-miterlimit="3.864" stroke-width=".096" fill="none"/><path d="m285.32 449.26h0.695v1.112h-0.695v-1.112z" fill="#9998ba"/><path d="m285.32 450.37h0.695v-1.113h-0.695v1.113z" stroke="#fff" stroke-miterlimit="3.864" stroke-width=".096" fill="none"/><path d="m288.86 449.26h0.696v1.112h-0.696v-1.112z" fill="#9998ba"/><path d="m288.86 450.37h0.695v-1.113h-0.695v1.113z" stroke="#fff" stroke-miterlimit="3.864" stroke-width=".096" fill="none"/><path d="m292.4 449.26h0.695v1.112h-0.695v-1.112z" fill="#9998ba"/><path d="m292.4 450.37h0.695v-1.113h-0.695v1.113z" stroke="#fff" stroke-miterlimit="3.864" stroke-width=".096" fill="none"/><path d="m296 449.26h0.696v1.112h-0.696v-1.112z" fill="#9998ba"/><path d="m296 450.37h0.695v-1.113h-0.695v1.113z" stroke="#fff" stroke-miterlimit="3.864" stroke-width=".096" fill="none"/><g transform="translate(.67456 .67456)"><g style=""><g clip-path="url(#ca)"><path d="m282.31 461.08 0.441-0.469v-0.429h15.233v0.898h-15.674z" fill="url(#ap)"/></g></g></g><g><path d="m316.01 450.24v13.489h15.486l-0.253-0.214v-13.232l-15.233-0.043z" fill="#fff"/><path d="m318.83 460h-1.771v-2.44h-0.253v-0.685h2.213v0.685h-0.189v2.44z" fill="#656894"/><path d="m318.94 460.09h-1.771v-2.484h-0.253v-0.643h2.213v0.643h-0.189v2.484z" fill="#fff"/><path d="m317.47 459.75h1.137v-2.227h-1.137v2.227z" fill="#656894"/><path d="m322.52 460h-1.769v-2.44h-0.253v-0.685h2.211v0.685h-0.189v2.44z" fill="#656894"/><path d="m322.62 460.09h-1.769v-2.484h-0.255v-0.643h2.213v0.643h-0.189v2.484z" fill="#fff"/><path d="m321.15 459.75h1.137v-2.227h-1.137v2.227z" fill="#656894"/><path d="m326.34 460h-1.769v-2.44h-0.253v-0.685h2.212v0.685h-0.19v2.44z" fill="#656894"/><path d="m326.44 460.09h-1.771v-2.484h-0.253v-0.643h2.213v0.643h-0.189v2.484z" fill="#fff"/><path d="m324.98 459.75h1.136v-2.227h-1.136v2.227z" fill="#656894"/><path d="m329.95 460h-1.771v-2.44h-0.253v-0.685h2.213v0.685h-0.189v2.44z" fill="#656894"/><path d="m330.05 460.09h-1.769v-2.484h-0.253v-0.643h2.212v0.643h-0.19v2.484z" fill="#fff"/><path d="m328.58 459.75h1.139v-2.227h-1.139v2.227z" fill="#656894"/><path d="m316.6 455.29h2.466v-4.238h-2.466v4.238z" fill="#656894"/></g><path d="m316.6 455.29h2.466v-4.238h-2.466v4.238z" stroke="#fff" stroke-miterlimit="3.864" stroke-width=".096" fill="none"/><path d="m316.81 455.51h2.466v-4.239h-2.466v4.239z" fill="#fff"/><path d="m316.81 455.51h2.466v-4.239h-2.466v4.239z" stroke="#fff" stroke-miterlimit="3.864" stroke-width=".096" fill="none"/><path d="m317.38 454.95h1.327v-3.128h-1.327v3.128z" fill="#656894"/><g transform="translate(.67456 .67456)"><g style=""><g clip-path="url(#bz)"><path d="m315.88 454.83h2.971s-0.568 0.901-1.517 0.901c-1.012 0-1.454-0.901-1.454-0.901" fill="url(#ao)"/></g></g></g><path d="m324.03 455.29h2.464v-4.238h-2.464v4.238z" fill="#656894"/><path d="m324.03 455.29h2.464v-4.238h-2.464v4.238z" stroke="#fff" stroke-miterlimit="3.864" stroke-width=".096" fill="none"/><path d="m324.24 455.51h2.464v-4.239h-2.464v4.239z" fill="#fff"/><path d="m324.24 455.51h2.464v-4.239h-2.464v4.239z" stroke="#fff" stroke-miterlimit="3.864" stroke-width=".096" fill="none"/><path d="m324.81 454.95h1.327v-3.128h-1.327v3.128z" fill="#656894"/><g transform="translate(.67456 .67456)"><g style=""><g clip-path="url(#by)"><path d="m323.32 454.83h2.969s-0.568 0.901-1.517 0.901c-1.01 0-1.452-0.901-1.452-0.901" fill="url(#an)"/></g></g></g><path d="m320.3 455.29h2.466v-4.238h-2.466v4.238z" fill="#656894"/><path d="m320.3 455.29h2.466v-4.238h-2.466v4.238z" stroke="#fff" stroke-miterlimit="3.864" stroke-width=".096" fill="none"/><path d="m320.51 455.51h2.466v-4.239h-2.466v4.239z" fill="#fff"/><path d="m320.51 455.51h2.466v-4.239h-2.466v4.239z" stroke="#fff" stroke-miterlimit="3.864" stroke-width=".096" fill="none"/><path d="m321.08 454.95h1.327v-3.128h-1.327v3.128z" fill="#656894"/><g transform="translate(.67456 .67456)"><g style=""><g clip-path="url(#bx)"><path d="m319.59 454.83h2.97l-1.516 0.901-1.454-0.901z" fill="url(#am)"/></g></g></g><path d="m327.63 455.29h2.464v-4.238h-2.464v4.238z" fill="#656894"/><path d="m327.63 455.29h2.464v-4.238h-2.464v4.238z" stroke="#fff" stroke-miterlimit="3.864" stroke-width=".096" fill="none"/><path d="m327.85 455.51h2.464v-4.239h-2.464v4.239z" fill="#fff"/><path d="m327.85 455.51h2.464v-4.239h-2.464v4.239z" stroke="#fff" stroke-miterlimit="3.864" stroke-width=".096" fill="none"/><path d="m328.42 454.95h1.327v-3.128h-1.327v3.128z" fill="#656894"/><g transform="translate(.67456 .67456)"><g style=""><g clip-path="url(#bw)"><path d="m326.92 454.83h2.969l-1.516 0.901-1.453-0.901z" fill="url(#al)"/></g></g></g><path d="m319.8 465h-1.579v-1.327h1.579v1.327z" fill="#fff"/><path d="m319.8 465h-1.579v-1.327h1.579v1.327z" stroke="#fff" stroke-miterlimit="3.864" stroke-width=".096" fill="none"/><path d="m330.02 463.68h-2.339v-1.114h2.339v1.114z" fill="#9998ba"/><path d="m330.02 463.68h-2.339v-1.114h2.339v1.114z" stroke="#fff" stroke-miterlimit="3.864" stroke-width=".096" fill="none"/><path d="m326.21 463.68h-2.339v-1.114h2.339v1.114z" fill="#9998ba"/><path d="m326.21 463.68h-2.339v-1.114h2.339v1.114z" stroke="#fff" stroke-miterlimit="3.864" stroke-width=".096" fill="none"/><path d="m322.41 463.68h-2.339v-1.114h2.339v1.114z" fill="#9998ba"/><path d="m322.41 463.68h-2.339v-1.114h2.339v1.114z" stroke="#fff" stroke-miterlimit="3.864" stroke-width=".096" fill="none"/><path d="m318.6 463.68h-2.339v-1.114h2.339v1.114z" fill="#9998ba"/><path d="m318.6 463.68h-2.339v-1.114h2.339v1.114z" stroke="#fff" stroke-miterlimit="3.864" stroke-width=".096" fill="none"/><g transform="translate(.67456 .67456)"><g style=""><g clip-path="url(#bv)"><path d="m316.05 448.69h14.831v0.898h-14.831v-0.898z" fill="url(#ak)"/></g></g></g><path d="m316.73 449.36h14.831v0.898h-14.831v-0.898z" stroke="#fff" stroke-miterlimit="3.864" stroke-width=".096" fill="none"/><path d="m328.65 449.26h0.696v1.112h-0.696v-1.112z" fill="#9998ba"/><path d="m329.35 450.37h-0.695v-1.113h0.695v1.113z" stroke="#fff" stroke-miterlimit="3.864" stroke-width=".096" fill="none"/><path d="m325.11 449.26h0.696v1.112h-0.696v-1.112z" fill="#9998ba"/><path d="m325.81 450.37h-0.695v-1.113h0.695v1.113z" stroke="#fff" stroke-miterlimit="3.864" stroke-width=".096" fill="none"/><path d="m321.57 449.26h0.695v1.112h-0.695v-1.112z" fill="#9998ba"/><path d="m322.27 450.37h-0.695v-1.113h0.695v1.113z" stroke="#fff" stroke-miterlimit="3.864" stroke-width=".096" fill="none"/><path d="m317.97 449.26h0.696v1.112h-0.696v-1.112z" fill="#9998ba"/><path d="m318.66 450.37h-0.695v-1.113h0.695v1.113z" stroke="#fff" stroke-miterlimit="3.864" stroke-width=".096" fill="none"/><g transform="translate(.67456 .67456)"><g style=""><g clip-path="url(#bu)"><path d="m315.33 461.08v-0.898h15.234v0.429l0.442 0.469h-15.676z" fill="url(#aj)"/></g></g></g><g transform="translate(.67456 .67456)"><g style=""><g clip-path="url(#bt)"><path d="m299 464v-2.057l1.518-2.309h12.515l1.516 2.309v2.057h-15.549z" fill="url(#ai)"/></g></g></g><path d="m302.07 459.96h1.771v-3.127h-1.771v3.127z" fill="#b8b6d0"/><path d="m302.07 459.96h1.771v-3.127h-1.771v3.127z" stroke="#fff" stroke-miterlimit="3.864" stroke-width=".096" fill="none"/><path d="m302.37 459.62h1.137v-2.227h-1.137v2.227z" fill="#656894"/><path d="m302.37 459.62h1.137v-2.227h-1.137v2.227z" stroke="#fff" stroke-miterlimit="3.864" stroke-width=".096" fill="none"/><path d="m311.3 459.96h1.769v-3.127h-1.769v3.127z" fill="#b8b6d0"/><path d="m311.3 459.96h1.769v-3.127h-1.769v3.127z" stroke="#fff" stroke-miterlimit="3.864" stroke-width=".096" fill="none"/><path d="m311.6 459.62h1.137v-2.227h-1.137v2.227z" fill="#656894"/><path d="m311.6 459.62h1.137v-2.227h-1.137v2.227z" stroke="#fff" stroke-miterlimit="3.864" stroke-width=".096" fill="none"/><path d="m306.69 459.96h1.769v-3.127h-1.769v3.127z" fill="#b8b6d0"/><path d="m306.69 459.96h1.769v-3.127h-1.769v3.127z" stroke="#fff" stroke-miterlimit="3.864" stroke-width=".096" fill="none"/><path d="m306.99 459.62h1.137v-2.227h-1.137v2.227z" fill="#656894"/><path d="m306.99 459.62h1.137v-2.227h-1.137v2.227z" stroke="#fff" stroke-miterlimit="3.864" stroke-width=".096" fill="none"/><g transform="translate(.67456 .67456)"><g style=""><g clip-path="url(#bs)"><path d="m315.62 463.4h-17.888v2.184h17.888v-2.184z" fill="url(#ah)"/></g></g></g><g transform="translate(.67456 .67456)"><g style=""><g clip-path="url(#br)"><path d="m297.73 465.16h0.252v0.253h-0.252v-0.253z" fill="url(#ag)"/></g></g></g><g transform="translate(.67456 .67456)"><g style=""><g clip-path="url(#bq)"><path d="m298.57 465.16h0.252v0.253h-0.252v-0.253z" fill="url(#af)"/></g></g></g><g transform="translate(.67456 .67456)"><g style=""><g clip-path="url(#bp)"><path d="m299.41 465.15h0.252v0.255h-0.252v-0.255z" fill="url(#ae)"/></g></g></g><g transform="translate(.67456 .67456)"><g style=""><g clip-path="url(#bo)"><path d="m300.25 465.16h0.252v0.253h-0.252v-0.253z" fill="url(#ad)"/></g></g></g><g transform="translate(.67456 .67456)"><g style=""><g clip-path="url(#bn)"><path d="m301.08 465.16h0.252v0.253h-0.252v-0.253z" fill="url(#ac)"/></g></g></g><g transform="translate(.67456 .67456)"><g style=""><g clip-path="url(#bm)"><path d="m301.92 465.16h0.251v0.253h-0.251v-0.253z" fill="url(#ab)"/></g></g></g><g transform="translate(.67456 .67456)"><g style=""><g clip-path="url(#bl)"><path d="m302.76 465.15h0.253v0.255h-0.253v-0.255z" fill="url(#aa)"/></g></g></g><g transform="translate(.67456 .67456)"><g style=""><g clip-path="url(#bk)"><path d="m303.6 465.16h0.254v0.252h-0.254v-0.252z" fill="url(#z)"/></g></g></g><g transform="translate(.67456 .67456)"><g style=""><g clip-path="url(#bj)"><path d="m304.44 465.16h0.252v0.253h-0.252v-0.253z" fill="url(#y)"/></g></g></g><g transform="translate(.67456 .67456)"><g style=""><g clip-path="url(#bi)"><path d="m305.28 465.16h0.252v0.253h-0.252v-0.253z" fill="url(#x)"/></g></g></g><g transform="translate(.67456 .67456)"><g style=""><g clip-path="url(#bh)"><path d="m306.11 465.15h0.252v0.255h-0.252v-0.255z" fill="url(#w)"/></g></g></g><g transform="translate(.67456 .67456)"><g style=""><g clip-path="url(#bg)"><path d="m306.95 465.15h0.251v0.255h-0.251v-0.255z" fill="url(#v)"/></g></g></g><g transform="translate(.67456 .67456)"><g style=""><g clip-path="url(#bf)"><path d="m307.79 465.16h0.252v0.253h-0.252v-0.253z" fill="url(#u)"/></g></g></g><g transform="translate(.67456 .67456)"><g style=""><g clip-path="url(#be)"><path d="m308.63 465.16h0.251v0.253h-0.251v-0.253z" fill="url(#t)"/></g></g></g><g transform="translate(.67456 .67456)"><g style=""><g clip-path="url(#bd)"><path d="m309.47 465.16h0.252v0.252h-0.252v-0.252z" fill="url(#s)"/></g></g></g><g transform="translate(.67456 .67456)"><g style=""><g clip-path="url(#bc)"><path d="m310.31 465.15h0.252v0.255h-0.252v-0.255z" fill="url(#r)"/></g></g></g><g transform="translate(.67456 .67456)"><g style=""><g clip-path="url(#bb)"><path d="m311.14 465.16h0.251v0.253h-0.251v-0.253z" fill="url(#q)"/></g></g></g><g transform="translate(.67456 .67456)"><g style=""><g clip-path="url(#ba)"><path d="m311.98 465.16h0.252v0.253h-0.252v-0.253z" fill="url(#p)"/></g></g></g><g transform="translate(.67456 .67456)"><g style=""><g clip-path="url(#az)"><path d="m312.82 465.16h0.251v0.253h-0.251v-0.253z" fill="url(#o)"/></g></g></g><g transform="translate(.67456 .67456)"><g style=""><g clip-path="url(#ay)"><path d="m313.66 465.15h0.253v0.255h-0.253v-0.255z" fill="url(#n)"/></g></g></g><g transform="translate(.67456 .67456)"><g style=""><g clip-path="url(#ax)"><path d="m314.5 465.16h0.253v0.253h-0.253v-0.253z" fill="url(#m)"/></g></g></g><g transform="translate(.67456 .67456)"><g style=""><g clip-path="url(#aw)"><path d="m315.33 465.16h0.254v0.253h-0.254v-0.253z" fill="url(#l)"/></g></g></g><path d="m307.32 470.41-9.26-3.77v-0.279h18.424v0.395l-9.164 3.654z" fill="#cdcbde"/><g transform="translate(307.32 473.75)"><path d="m0 0s0.126-0.429 0.884-0.429c0.821 0 0.443 0.086 1.138-0.129l0.126-1.198s-0.569 0.3-1.011 0.3-0.569-0.3-1.137-0.086v1.542z" fill="#fff"/></g><g transform="translate(298.66 466.64)"><path d="m0 0 8.661 3.426 8.722-3.426h-17.383zm17.129 0.646v0.894h-2.185l-6.283 2.572-6.247-2.572h-2.161v-0.889l-1.58-0.651h0.025l0.512-0.556h18.906l0.575 0.556h0.019l-1.581 0.646z" fill="#fff"/></g><path d="m308.96 453.41h-2.782v-2.826h2.782v2.826zm-0.098-2.729h-2.589v2.633h2.589v-2.633z" fill="#fff"/><path d="m306.78 453.07h1.581v-2.442h-1.581v2.442z" fill="#656894"/><g transform="translate(306.78 453.07)"><path d="m0 0h1.581v-2.442h-1.581v2.442z" stroke="#fff" stroke-miterlimit="3.864" stroke-width=".096" fill="none"/></g><g transform="translate(306.18 453.84)"><path d="m0 0s0.063 1.326 1.39 1.326c1.328 0 1.392-1.326 1.392-1.326h-2.782z" fill="#fff"/></g><path d="m306.18 453.84h2.782v-0.429h-2.782v0.429z" fill="#fff"/><g transform="translate(307.57 456.28)"><path d="m0 0-0.568-0.642h1.137l-0.569 0.642z" fill="#fff"/></g><g transform="translate(307.57 456.28)"><path d="m0 0-0.568-0.642h1.137l-0.569 0.642z" stroke="#fff" stroke-miterlimit="3.864" stroke-width=".096" fill="none"/></g><g transform="translate(307 454.14)"><path d="m0 0 0.049 1.495 0.519-0.049-0.046-1.446h-0.522z" fill="#b8b6d0"/></g><path d="m307.57 455.64h-0.568v-1.543h0.568v1.543zm-0.096-1.448h-0.378v1.352h0.378v-1.352z" fill="#fff"/><g transform="translate(307.57 454.14)"><path d="m0 0 0.049 1.495 0.52-0.049-0.046-1.446h-0.523z" fill="#656894"/></g><g fill="#fff"><path d="m308.14 455.64h-0.569v-1.543h0.569v1.543zm-0.096-1.448h-0.379v1.352h0.379v-1.352z"/><path d="m314.37 451.53h1.011v-0.9h-1.011v0.9z"/><path d="m313.61 451.27h0.758v-0.685h-0.758v0.685z"/><path d="m300.68 451.48h-1.011v-0.9h1.011v0.9z"/><path d="m301.44 451.27h-0.758v-0.685h0.758v0.685z"/></g><g transform="translate(305.11 463.64)"><path d="m0 0c0.316-0.129 0.568 0 0.568 0.215 0 0.213-0.252 0.213-0.252 0.213h-1.643s-0.252 0-0.252-0.213c0-0.215 0.252-0.344 0.568-0.215h1.011z" fill="#fff"/></g><g transform="translate(305.11 463.64)"><path d="m0 0c0.316-0.129 0.568 0 0.568 0.215 0 0.213-0.252 0.213-0.252 0.213h-1.643s-0.252 0-0.252-0.213c0-0.215 0.252-0.344 0.568-0.215h1.011z" stroke="#fff" stroke-miterlimit="3.864" stroke-width=".096" fill="none"/></g><g transform="translate(305.11 463.64)"><path d="m0 0h-1.011l-0.189-11.82h1.326l-0.126 11.82z" fill="#fff"/></g><path d="m303.78 451.82h1.581v-1.242h-1.581v1.242z" fill="#fff"/><g transform="translate(303.78 451.83)"><path d="m0 0h1.581v-1.242h-1.581v1.242z" stroke="#fff" stroke-miterlimit="3.864" stroke-width=".096" fill="none"/></g><g transform="translate(309.78 463.64)"><path d="m0 0c-0.316-0.129-0.568 0-0.568 0.215 0 0.213 0.252 0.213 0.252 0.213h1.643s0.252 0 0.252-0.213c0-0.215-0.252-0.344-0.566-0.215h-1.013z" fill="#fff"/></g><g transform="translate(309.78 463.64)"><path d="m0 0c-0.316-0.129-0.568 0-0.568 0.215 0 0.213 0.252 0.213 0.252 0.213h1.643s0.252 0 0.252-0.213c0-0.215-0.252-0.344-0.566-0.215h-1.013z" stroke="#fff" stroke-miterlimit="3.864" stroke-width=".096" fill="none"/></g><g transform="translate(309.78 463.64)"><path d="m0 0h1.013l0.187-11.82h-1.326l0.126 11.82z" fill="#fff"/></g><path d="m309.53 451.82h1.581v-1.242h-1.581v1.242z" fill="#fff"/><g transform="translate(309.53 451.83)"><path d="m0 0h1.581v-1.242h-1.581v1.242z" stroke="#fff" stroke-miterlimit="3.864" stroke-width=".096" fill="none"/></g><g transform="translate(315.22 463.64)"><path d="m0 0c-0.316-0.129-0.569 0-0.569 0.215 0 0.213 0.253 0.213 0.253 0.213h1.643s0.252 0 0.252-0.213c0-0.215-0.252-0.344-0.568-0.215h-1.011z" fill="#fff"/></g><g transform="translate(315.22 463.64)"><path d="m0 0c-0.316-0.129-0.569 0-0.569 0.215 0 0.213 0.253 0.213 0.253 0.213h1.643s0.252 0 0.252-0.213c0-0.215-0.252-0.344-0.568-0.215h-1.011z" stroke="#fff" stroke-miterlimit="3.864" stroke-width=".096" fill="none"/></g><g transform="translate(315.22 463.64)"><path d="m0 0h1.098l0.481-11.82h-1.442l-0.137 11.82z" fill="#fff"/></g><path d="m315.22 451.82h1.579v-1.242h-1.579v1.242z" fill="#fff"/><g transform="translate(315.22 451.83)"><path d="m0 0h1.579v-1.242h-1.579v1.242z" stroke="#fff" stroke-miterlimit="3.864" stroke-width=".096" fill="none"/></g><g transform="translate(299.67 463.64)"><path d="m0 0c0.316-0.129 0.569 0 0.569 0.215 0 0.213-0.253 0.213-0.253 0.213h-1.643s-0.254 0-0.254-0.213c0-0.215 0.254-0.344 0.568-0.215h1.013z" fill="#fff"/></g><g transform="translate(299.67 463.64)"><path d="m0 0h-1.013l-0.44-11.82h1.327l0.126 11.82z" fill="#fff"/></g><path d="m298.09 451.82h1.581v-1.242h-1.581v1.242z" fill="#fff"/><g transform="translate(298.09 451.83)"><path d="m0 0h1.581v-1.242h-1.581v1.242z" stroke="#fff" stroke-miterlimit="3.864" stroke-width=".096" fill="none"/></g><g transform="translate(.67456 .67456)"><g style=""><g clip-path="url(#av)"><path d="m316.32 448.45h-19.468v1.499h19.468v-1.499z" fill="url(#k)"/></g></g></g><path d="m316.99 449.13h-19.468v1.499h19.468v-1.499z" stroke="#fff" stroke-miterlimit="3.864" stroke-width=".096" fill="none"/><path d="m301.69 455.29h2.464v-4.238h-2.464v4.238z" stroke="#fff" stroke-miterlimit="3.864" stroke-width=".096" fill="none"/><path d="m302.26 454.74h1.327v-3.127h-1.327v3.127z" fill="#656894"/><g transform="translate(304.41 455.29)"><path stroke-linejoin="round" d="m0 0h-2.971s0.442 0.9 1.453 0.9c0.95 0 1.518-0.9 1.518-0.9" stroke="#fff" stroke-linecap="round" stroke-miterlimit="3.864" stroke-width=".096" fill="none"/></g><path d="m310.98 455.29h2.466v-4.238h-2.466v4.238z" stroke="#fff" stroke-miterlimit="3.864" stroke-width=".096" fill="none"/><path d="m311.55 454.74h1.327v-3.127h-1.327v3.127z" fill="#656894"/><path d="m312.88 453.97h-1.327m1.327-0.771h-1.327m1.327-0.771h-1.327m0.8843 2.3123v-3.127m-0.442 3.127v-3.127m-0.4433 3.1266h1.327v-3.127h-1.327v3.127zm-7.9613-0.7699h-1.327m1.327-0.771h-1.327m1.327-0.771h-1.327m0.8842 2.3123v-3.127m-0.443 3.127v-3.127m-0.4414 3.1266h1.327v-3.127h-1.327v3.127zm12.386-3.3742 0.124 10.576h0.554m-1.0775-10.733-0.043 9.869h0.539m-1.0443-0.7689 0.063-9.1m-13.42 0.2779-0.243 10.456h-0.542m1.306-10.67-0.185 9.806h-0.506m1.0115-0.7695 0.127-9.1m-0.1913 11.84s1.455-4.71 6.448-6.807m6.195 6.807s-1.202-4.71-6.195-6.807m-0.0004-0.0003v6.807m0-9.977v-2.442m-0.7898 1.2212h1.58m-1.0422 21.904s0.126-0.429 0.884-0.429c0.821 0 0.443 0.086 1.138-0.129l0.126-1.198s-0.569 0.3-1.011 0.3-0.569-0.3-1.137-0.086v1.542zm0-2.9975v3.211m0.2682-14.345v-2.227m-0.569 1.671h1.075m-1.075-0.557h1.075m-1.075-0.556h1.075m4.1069 1.669v-2.227m-0.569 1.671h1.075m-1.075-0.557h1.075m-1.075-0.556h1.075m-9.7298 1.669v-2.227m-0.571 1.671h1.076m-1.076-0.557h1.076m-1.076-0.556h1.076m13.129 4.6127v1.114m0.316-1.114v1.114m0.315-1.114v1.114m0.379-1.114v1.114m0.316-1.114v1.114m0.317-1.114v1.114m2.1625-1.114v1.114m0.316-1.114v1.114m0.315-1.114v1.114m0.38-1.114v1.114m0.316-1.114v1.114m0.315-1.114v1.114m2.1629-1.114v1.114m0.318-1.114v1.114m0.316-1.114v1.114m0.379-1.114v1.114m0.314-1.114v1.114m0.318-1.114v1.114m2.1619-1.114v1.114m0.316-1.114v1.114m0.316-1.114v1.114m0.379-1.114v1.114m0.316-1.114v1.114m0.316-1.114v1.114m0.0722-9.4963h-1.327m1.327-0.771h-1.327m1.327-0.769h-1.327m0.8857 2.3118v-3.128m-0.443 3.128v-3.128m-0.4424 3.1285h1.327v-3.128h-1.327v3.128zm-6.0043-0.7723h-1.327m1.327-0.771h-1.327m1.327-0.769h-1.327m0.8842 2.3118v-3.128m-0.443 3.128v-3.128m-0.4417 3.1285h1.327v-3.128h-1.327v3.128zm5.0562-0.7723h-1.327m1.327-0.771h-1.327m1.327-0.769h-1.327m0.885 2.3118v-3.128m-0.443 3.128v-3.128m-0.4424 3.1285h1.327v-3.128h-1.327v3.128zm-6.1077-0.7723h-1.327m1.327-0.771h-1.327m1.327-0.769h-1.327m0.8856 2.3118v-3.128m-0.443 3.128v-3.128m-0.4426 3.1285h1.327v-3.128h-1.327v3.128zm11.801 4.7947v-2.227m0.505 1.671h-1.074m1.074-0.558h-1.074m1.074-0.555h-1.074m-0.0168 1.6687h1.139v-2.227h-1.139v2.227zm-3.018 0.0003v-2.227m0.506 1.671h-1.075m1.075-0.558h-1.075m1.075-0.555h-1.075m-0.016 1.6687h1.137v-2.227h-1.137v2.227zm-3.2401 0.0003v-2.227m0.505 1.671h-1.074m1.074-0.558h-1.074m1.074-0.555h-1.074m-0.0156 1.6687h1.137v-2.227h-1.137v2.227zm-3.0995 0.0003v-2.227m0.505 1.671h-1.074m1.074-0.558h-1.074m1.074-0.555h-1.074m-0.016 1.6687h1.137v-2.227h-1.137v2.227zm-19.897-5.5667h-1.327m1.327-0.771h-1.327m1.327-0.769h-1.327m0.8849 2.3118v-3.128m-0.443 3.128v-3.128m-0.4425 3.1285h1.327v-3.128h-1.327v3.128zm-6.0042-0.7723h-1.327m1.327-0.771h-1.327m1.327-0.769h-1.327m0.8842 2.3118v-3.128m-0.443 3.128v-3.128m-0.4418 3.1285h1.327v-3.128h-1.327v3.128zm5.057-0.7723h-1.327m1.327-0.771h-1.327m1.327-0.769h-1.327m0.8836 2.3118v-3.128m-0.442 3.128v-3.128m-0.4428 3.1285h1.327v-3.128h-1.327v3.128zm-6.1076-0.7723h-1.327m1.327-0.771h-1.327m1.327-0.769h-1.327m0.8856 2.3118v-3.128m-0.443 3.128v-3.128m-0.4427 3.1285h1.327v-3.128h-1.327v3.128zm12.84 8.7246v-1.114m-0.316 1.114v-1.114m-0.316 1.114v-1.114m-0.381 1.114v-1.114m-0.314 1.114v-1.114m-0.316 1.114v-1.114m-2.1632 1.114v-1.114m-0.316 1.114v-1.114m-0.315 1.114v-1.114m-0.38 1.114v-1.114m-0.316 1.114v-1.114m-0.316 1.114v-1.114m-2.1633 1.114v-1.114m-0.316 1.114v-1.114m-0.316 1.114v-1.114m-0.379 1.114v-1.114m-0.316 1.114v-1.114m-0.316 1.114v-1.114m-2.1626 1.114v-1.114m-0.316 1.114v-1.114m-0.316 1.114v-1.114m-0.379 1.114v-1.114m-0.316 1.114v-1.114m-0.316 1.114v-1.114m12.022-2.8159v-2.227m0.506 1.671h-1.075m1.075-0.558h-1.075m1.075-0.555h-1.075m-0.0162 1.6687h1.137v-2.227h-1.137v2.227zm-3.0179 0.0003v-2.227m0.506 1.671h-1.074m1.074-0.558h-1.074m1.074-0.555h-1.074m-0.0157 1.6687h1.137v-2.227h-1.137v2.227zm-3.2428 0.0003v-2.227m0.506 1.671h-1.072m1.072-0.558h-1.072m1.072-0.555h-1.072m-0.0173 1.6687h1.139v-2.227h-1.139v2.227zm-3.1 0.0003v-2.227m0.506 1.671h-1.074m1.074-0.558h-1.074m1.074-0.555h-1.074m-0.0165 1.6687h1.139v-2.227h-1.139v2.227z" stroke="#fff" stroke-miterlimit="3.864" stroke-width=".104" fill="none"/><path stroke-linejoin="round" d="m313.7 455.29h-2.971s0.442 0.9 1.453 0.9c0.949 0 1.518-0.9 1.518-0.9" stroke="#fff" stroke-linecap="round" stroke-miterlimit="3.864" stroke-width=".096" fill="none"/><g fill="#fff"><path d="m300.83 441.51h-0.451l0.235 0.631 0.216-0.631zm0.838-0.781c-0.21 0.024-0.284 0.122-0.335 0.262l-0.573 1.587c-0.006 0.02-0.03 0.038-0.057 0.038s-0.049-0.013-0.058-0.036l-0.645-1.586c-0.068-0.155-0.118-0.251-0.307-0.266-0.019-0.005-0.046-0.025-0.046-0.053-0.001-0.02 0.003-0.039 0.013-0.049 0.007-0.01 0.016-0.013 0.027-0.013h0.662c0.023 0 0.04 0.027 0.04 0.057 0 0.053-0.025 0.059-0.034 0.059-0.18 0.009-0.206 0.063-0.206 0.112 0 0.038 0.017 0.087 0.03 0.127l0.153 0.416h0.541l0.156-0.448c0.013-0.041 0.024-0.081 0.024-0.111 0-0.043-0.016-0.087-0.213-0.096-0.009 0-0.034-0.006-0.034-0.059 0-0.03 0.017-0.057 0.04-0.057h0.824c0.024 0 0.043 0.027 0.043 0.057s-0.021 0.053-0.045 0.059"/><path d="m302.61 441.76c-0.206 0.119-0.401 0.235-0.401 0.409 0 0.195 0.124 0.316 0.318 0.316 0.209 0 0.319-0.107 0.378-0.373 0.002-0.017 0.015-0.036 0.06-0.036 0.02 0 0.038 0.006 0.048 0.019 0.006 0.007 0.007 0.017 0.006 0.024-0.021 0.156-0.033 0.273-0.044 0.428v0.015h-0.017c-0.085 0-0.141 0.013-0.199 0.025-0.065 0.013-0.129 0.027-0.229 0.027-0.393 0-0.607-0.288-0.607-0.556 0-0.292 0.252-0.437 0.495-0.578 0.211-0.122 0.411-0.238 0.411-0.438 0-0.225-0.117-0.349-0.332-0.349-0.27 0-0.399 0.12-0.496 0.455-0.013 0.036-0.045 0.036-0.056 0.036-0.034 0-0.059-0.019-0.059-0.045 0.015-0.14 0.027-0.329 0.032-0.466l0.003-0.019h0.017c0.097 0 0.171-0.02 0.25-0.04 0.084-0.023 0.175-0.047 0.299-0.047 0.379 0 0.624 0.242 0.624 0.618 0 0.28-0.265 0.436-0.501 0.575"/><path d="m305.53 442.45c0.024 0 0.041 0.026 0.041 0.059 0 0.028-0.017 0.057-0.041 0.057h-0.831c-0.023 0-0.04-0.024-0.04-0.057 0-0.035 0.016-0.059 0.039-0.059 0.244-0.03 0.244-0.074 0.244-0.207v-0.585h-1.017v0.585c0 0.133 0 0.177 0.245 0.207 0.024 0 0.041 0.024 0.041 0.059 0 0.033-0.018 0.057-0.041 0.057h-0.831c-0.025 0-0.043-0.029-0.043-0.057 0-0.033 0.02-0.059 0.04-0.059 0.257-0.03 0.27-0.079 0.27-0.215v-1.301c0-0.13-0.01-0.183-0.273-0.213-0.02-0.005-0.037-0.029-0.037-0.057 0-0.032 0.02-0.059 0.043-0.059h0.831c0.02 0 0.041 0.018 0.041 0.059 0 0.032-0.014 0.052-0.04 0.058-0.246 0.029-0.246 0.072-0.246 0.203v0.607h1.017v-0.607c0-0.131 0-0.174-0.246-0.203-0.023-0.006-0.037-0.026-0.037-0.058 0-0.041 0.02-0.059 0.04-0.059h0.831c0.024 0 0.041 0.027 0.041 0.059 0 0.028-0.014 0.052-0.038 0.058-0.26 0.029-0.27 0.082-0.27 0.212v1.301c0 0.136 0.012 0.185 0.267 0.215"/><path d="m306.73 442.45c0.024 0 0.04 0.024 0.04 0.059 0 0.033-0.017 0.057-0.04 0.057h-0.854c-0.024 0-0.04-0.029-0.04-0.057 0-0.033 0.017-0.059 0.037-0.059 0.259-0.03 0.272-0.079 0.272-0.215v-1.301c0-0.13-0.011-0.183-0.275-0.213-0.021-0.005-0.034-0.029-0.034-0.057 0-0.032 0.017-0.059 0.04-0.059h0.854c0.02 0 0.04 0.018 0.04 0.059 0 0.032-0.013 0.052-0.04 0.058-0.266 0.029-0.266 0.092-0.266 0.212v1.301c0 0.123 0 0.182 0.266 0.215"/><path d="m309.36 442.51c0 0.043-0.02 0.059-0.042 0.059h-0.738c-0.024 0-0.041-0.026-0.041-0.059 0-0.03 0.013-0.052 0.039-0.059 0.267-0.03 0.297-0.088 0.297-0.21v-1.127l-1.297 1.452-0.006 0.005h-0.495c-0.024 0-0.041-0.024-0.041-0.058 0-0.033 0.017-0.057 0.037-0.057 0.266-0.035 0.292-0.089 0.29-0.215l-0.05-1.3c-0.003-0.123-0.016-0.185-0.286-0.215-0.024-0.004-0.04-0.028-0.04-0.057 0-0.038 0.02-0.058 0.042-0.058h0.738c0.024 0 0.043 0.027 0.043 0.058 0 0.033-0.013 0.053-0.041 0.057-0.264 0.03-0.291 0.092-0.286 0.214l0.019 1.23 1.392-1.574 0.007-0.005c0.011-0.011 0.027-0.023 0.05-0.023 0.033 0 0.053 0.018 0.053 0.047l0.03 1.626c0.003 0.122 0.016 0.18 0.29 0.213 0.016 0.004 0.036 0.025 0.036 0.056"/><path d="m311.44 441.53h-0.991c-0.023 0-0.042-0.027-0.042-0.059 0-0.028 0.016-0.061 0.04-0.061 0.291-0.026 0.408-0.043 0.408-0.149v-0.363c0-0.14-0.149-0.212-0.445-0.212-0.403 0-0.731 0.398-0.731 0.888 0 0.508 0.328 0.904 0.745 0.904 0.342 0 0.548-0.146 0.63-0.447 0.003-0.019 0.014-0.039 0.051-0.039s0.065 0.019 0.063 0.044c-0.028 0.183-0.051 0.341-0.063 0.469l-0.001 0.016h-0.017c-0.096 0-0.185 0.02-0.281 0.04-0.104 0.022-0.211 0.046-0.337 0.046-0.744 0-1.132-0.522-1.132-1.033 0-0.505 0.332-1.014 1.073-1.014 0.25 0 0.572 0.085 0.78 0.168l0.017 0.007-0.006 0.018c-0.021 0.058-0.028 0.126-0.028 0.284v0.164c0 0.13 0.008 0.183 0.271 0.213 0.02 0.004 0.036 0.029 0.036 0.057 0 0.032-0.016 0.059-0.04 0.059"/><path d="m313.46 442.13c-0.034 0.172-0.056 0.275-0.074 0.443l-0.002 0.016h-1.769l-0.003-0.011c-0.044-0.169-0.082-0.299-0.146-0.471-0.004-0.01-0.003-0.023 0.004-0.033 0.012-0.014 0.033-0.021 0.06-0.021 0.025 0 0.041 0.01 0.049 0.031 0.069 0.223 0.326 0.343 0.542 0.343h0.107c0.083 0 0.101-0.018 0.101-0.087v-1.394c0-0.13-0.01-0.185-0.272-0.213-0.023-0.005-0.037-0.029-0.037-0.058 0-0.034 0.018-0.058 0.04-0.058h0.854c0.025 0 0.041 0.024 0.041 0.058 0 0.032-0.013 0.053-0.039 0.058-0.26 0.028-0.27 0.083-0.27 0.213v1.394c0 0.069 0.019 0.087 0.1 0.087h0.129c0.276 0 0.402-0.091 0.478-0.34 0.007-0.023 0.024-0.034 0.045-0.034 0.031 0 0.052 0.005 0.062 0.02 0.007 0.01 0.009 0.024 0.004 0.03l-0.004 0.027z"/><path d="m314.65 440.69c-0.415 0-0.695 0.358-0.695 0.888 0 0.451 0.214 0.904 0.695 0.904 0.415 0 0.695-0.363 0.695-0.904 0-0.53-0.28-0.888-0.695-0.888m0 1.921c-0.599 0-1.037-0.435-1.037-1.033s0.428-1.014 1.037-1.014 1.037 0.416 1.037 1.014c0 0.607-0.428 1.033-1.037 1.033"/><path d="m318.01 442.57h-0.741c-0.021 0-0.039-0.026-0.039-0.059 0-0.03 0.012-0.05 0.038-0.058 0.269-0.029 0.297-0.089 0.297-0.211v-1.125l-1.296 1.452-0.005 0.004h-0.495c-0.025 0-0.042-0.024-0.042-0.057 0-0.035 0.016-0.059 0.036-0.059 0.267-0.033 0.292-0.087 0.29-0.215l-0.048-1.3c-0.003-0.121-0.017-0.184-0.288-0.213-0.024-0.006-0.038-0.028-0.038-0.058 0-0.038 0.02-0.058 0.04-0.058h0.741c0.022 0 0.04 0.027 0.04 0.058 0 0.032-0.015 0.052-0.039 0.058-0.265 0.029-0.292 0.092-0.286 0.213l0.019 1.229 1.391-1.573 0.007-0.006c0.012-0.01 0.028-0.023 0.052-0.023 0.031 0 0.05 0.019 0.05 0.047l0.031 1.626c0.003 0.122 0.016 0.182 0.289 0.215 0.023 0.004 0.037 0.029 0.037 0.054 0 0.043-0.022 0.059-0.041 0.059"/><path d="m300.07 442.57h-0.538c-0.027 0-0.044-0.03-0.044-0.059 0-0.053 0.027-0.057 0.034-0.057 0.077-0.004 0.112-0.026 0.112-0.123 0-0.037-0.01-0.076-0.027-0.117l-0.512-1.197-0.338 0.685 0.26 0.483c0.099 0.176 0.132 0.251 0.304 0.269 0.03 0 0.048 0.033 0.048 0.063 0 0.039-0.017 0.053-0.036 0.053h-0.549c-0.024 0-0.044-0.031-0.044-0.059 0-0.053 0.028-0.057 0.036-0.057 0.148 0 0.135-0.083 0.125-0.116-0.005-0.015-0.021-0.073-0.047-0.123l-0.181-0.339-0.185 0.371c-0.024 0.053-0.039 0.106-0.04 0.123-0.001 0.03-0.011 0.084 0.132 0.084 0.033 0 0.033 0.043 0.033 0.057 0 0.029-0.016 0.059-0.041 0.059h-0.643c-0.026 0-0.039-0.03-0.039-0.059 0-0.031 0.025-0.057 0.045-0.057 0.157-0.016 0.171-0.079 0.251-0.243l0.311-0.651-0.304-0.569-0.556 1.254c-0.013 0.033-0.019 0.058-0.019 0.078 0 0.105 0.063 0.127 0.116 0.131 0.033 0 0.033 0.043 0.033 0.057 0 0.029-0.017 0.059-0.041 0.059h-0.717c-0.024 0-0.041-0.024-0.041-0.059 0-0.028 0.021-0.057 0.045-0.057 0.166-0.018 0.238-0.077 0.322-0.267l0.694-1.588c0.007-0.02 0.029-0.033 0.056-0.033 0.031 0 0.045 0.014 0.055 0.033l0.438 0.791 0.379-0.792c0.013-0.023 0.03-0.032 0.055-0.032 0.021 0 0.045 0.004 0.055 0.033l0.705 1.588c0.068 0.151 0.122 0.251 0.284 0.267 0.031 0 0.051 0.033 0.051 0.063 0 0.034-0.02 0.053-0.037 0.053"/><path d="m288.19 446.55-0.009 0.039c-0.054 0.267-0.087 0.432-0.115 0.69l-0.003 0.029h-2.759l-0.005-0.024c-0.068-0.258-0.128-0.462-0.229-0.73-0.004-0.017-0.001-0.037 0.009-0.051 0.016-0.022 0.052-0.036 0.094-0.036 0.038 0 0.061 0.016 0.075 0.05 0.111 0.368 0.518 0.534 0.847 0.534h0.167c0.127 0 0.154-0.025 0.154-0.135v-2.177c0-0.201-0.014-0.284-0.423-0.33-0.029-0.009-0.057-0.039-0.057-0.089 0-0.051 0.027-0.09 0.063-0.09h1.33c0.031 0 0.066 0.027 0.066 0.09 0 0.049-0.023 0.08-0.062 0.089-0.405 0.046-0.422 0.129-0.422 0.33v2.177c0 0.11 0.029 0.135 0.156 0.135h0.203c0.429 0 0.625-0.141 0.746-0.531 0.007-0.031 0.037-0.053 0.071-0.053 0.046 0 0.077 0.011 0.094 0.034 0.012 0.016 0.015 0.035 0.009 0.049"/><path d="m291.8 444.41c-0.405 0.047-0.421 0.13-0.421 0.33v2.03c0 0.213 0.021 0.286 0.42 0.336 0.034 0 0.062 0.042 0.062 0.09 0 0.045-0.027 0.09-0.062 0.09h-1.298c-0.037 0-0.064-0.037-0.064-0.09s0.026-0.09 0.06-0.09c0.383-0.046 0.383-0.117 0.383-0.322v-0.914h-1.584v0.914c0 0.205 0 0.276 0.379 0.322 0.038 0 0.064 0.037 0.064 0.09s-0.027 0.09-0.064 0.09h-1.298c-0.037 0-0.064-0.045-0.064-0.09 0-0.048 0.03-0.09 0.061-0.09 0.401-0.05 0.422-0.123 0.422-0.336v-2.03c0-0.2-0.015-0.283-0.424-0.33-0.035-0.009-0.059-0.044-0.059-0.089 0-0.051 0.03-0.091 0.064-0.091h1.298c0.031 0 0.064 0.028 0.064 0.091 0 0.049-0.022 0.08-0.06 0.089-0.383 0.043-0.383 0.112-0.383 0.32v0.943h1.584v-0.943c0-0.208 0-0.277-0.386-0.32-0.036-0.009-0.057-0.04-0.057-0.089 0-0.063 0.033-0.091 0.064-0.091h1.298c0.034 0 0.062 0.04 0.062 0.091 0 0.045-0.024 0.08-0.061 0.089"/><path d="m294.79 445.01c-0.019 0.029-0.059 0.047-0.097 0.047-0.012 0-0.045 0-0.066-0.034-0.153-0.325-0.519-0.568-0.853-0.568h-0.469c-0.144 0-0.22 0.074-0.22 0.225v1.028h0.514c0.195 0 0.319-0.03 0.37-0.443 0-0.038 0.04-0.066 0.09-0.066 0.044 0 0.09 0.028 0.09 0.066v1.064c0 0.035-0.037 0.064-0.09 0.064s-0.09-0.026-0.09-0.06c-0.05-0.406-0.167-0.426-0.37-0.426h-0.514v0.928c0 0.19 0.12 0.229 0.22 0.229h0.437c0.331 0 0.55-0.162 0.65-0.488 0.009-0.023 0.039-0.048 0.076-0.048 0.042 0 0.075 0.011 0.093 0.034 0.01 0.016 0.014 0.034 0.01 0.054-0.069 0.225-0.107 0.408-0.143 0.647l-0.003 0.024h-2.252c-0.036 0-0.065-0.036-0.065-0.089s0.027-0.091 0.062-0.091c0.417-0.05 0.417-0.14 0.417-0.336v-2.028c0-0.189 0-0.284-0.419-0.332-0.037-0.007-0.06-0.04-0.06-0.088 0-0.063 0.033-0.091 0.065-0.091h2.335l0.006 0.02c0.079 0.243 0.159 0.449 0.283 0.708 0.007 0.016 0.004 0.034-0.007 0.05"/><path d="m301.46 447.29h-0.838c-0.043 0-0.069-0.046-0.069-0.09 0-0.083 0.043-0.09 0.055-0.09 0.118-0.006 0.171-0.045 0.171-0.195 0-0.054-0.013-0.116-0.04-0.18l-0.801-1.865-0.525 1.068 0.406 0.753c0.155 0.271 0.206 0.392 0.471 0.419 0.047 0 0.077 0.053 0.077 0.1 0 0.054-0.027 0.08-0.056 0.08h-0.855c-0.038 0-0.069-0.049-0.069-0.09 0-0.083 0.043-0.09 0.055-0.09 0.233 0 0.213-0.132 0.196-0.18-0.009-0.025-0.033-0.116-0.073-0.194l-0.283-0.53-0.289 0.582c-0.037 0.079-0.059 0.166-0.062 0.189-0.004 0.048-0.018 0.133 0.205 0.133 0.051 0 0.051 0.067 0.051 0.09 0 0.044-0.024 0.09-0.063 0.09h-1.004c-0.04 0-0.06-0.046-0.06-0.09 0-0.049 0.039-0.09 0.069-0.09 0.247-0.026 0.269-0.122 0.392-0.381l0.485-1.014-0.472-0.888-0.867 1.96c-0.022 0.047-0.032 0.084-0.032 0.117 0 0.166 0.1 0.2 0.183 0.206 0.05 0 0.05 0.067 0.05 0.09 0 0.044-0.025 0.09-0.064 0.09h-1.12c-0.037 0-0.063-0.036-0.063-0.09 0-0.047 0.035-0.09 0.072-0.09h0.001c0.258-0.027 0.371-0.122 0.501-0.415l1.081-2.476c0.013-0.034 0.046-0.054 0.087-0.054 0.05 0 0.07 0.026 0.088 0.05l0.68 1.237 0.593-1.237c0.02-0.033 0.048-0.05 0.087-0.05 0.033 0 0.071 0.007 0.087 0.054l1.097 2.473c0.106 0.238 0.193 0.393 0.442 0.418 0.05 0 0.083 0.053 0.083 0.1 0 0.05-0.031 0.08-0.06 0.08"/><path d="m305.17 444.41c-0.406 0.047-0.422 0.13-0.422 0.33v2.03c0 0.213 0.02 0.286 0.418 0.336 0.035 0 0.064 0.042 0.064 0.09 0 0.045-0.026 0.09-0.064 0.09h-1.298c-0.035 0-0.063-0.037-0.063-0.09s0.026-0.09 0.061-0.09h0.001c0.382-0.046 0.382-0.117 0.382-0.322v-0.914h-1.585v0.914c0 0.205 0 0.276 0.379 0.322 0.039 0 0.064 0.037 0.064 0.09s-0.027 0.09-0.064 0.09h-1.296c-0.038 0-0.064-0.045-0.064-0.09 0-0.048 0.029-0.09 0.06-0.09 0.402-0.05 0.422-0.123 0.422-0.336v-2.03c0-0.2-0.016-0.283-0.425-0.33-0.034-0.009-0.057-0.044-0.057-0.089 0-0.051 0.029-0.091 0.064-0.091h1.296c0.032 0 0.064 0.028 0.064 0.091 0 0.049-0.022 0.08-0.061 0.089-0.382 0.043-0.382 0.112-0.382 0.32v0.943h1.585v-0.943c0-0.208 0-0.277-0.385-0.32-0.037-0.009-0.059-0.04-0.059-0.089 0-0.063 0.032-0.091 0.063-0.091h1.298c0.035 0 0.064 0.04 0.064 0.091 0 0.045-0.023 0.08-0.06 0.089"/><path d="m306.87 444.41c-0.418 0.049-0.418 0.142-0.418 0.33v2.03c0 0.195 0 0.286 0.415 0.336 0.039 0 0.063 0.037 0.063 0.09s-0.026 0.09-0.063 0.09h-1.33c-0.039 0-0.066-0.045-0.066-0.09 0-0.048 0.029-0.09 0.06-0.09 0.404-0.05 0.424-0.123 0.424-0.336v-2.03c0-0.2-0.018-0.283-0.427-0.33-0.033-0.009-0.057-0.044-0.057-0.089 0-0.051 0.029-0.091 0.066-0.091h1.33c0.032 0 0.063 0.028 0.063 0.091 0 0.049-0.021 0.08-0.06 0.089"/><path d="m310.05 446.56-0.007 0.037c-0.056 0.269-0.089 0.431-0.117 0.692l-0.003 0.025h-2.758l-0.007-0.02c-0.069-0.262-0.126-0.462-0.226-0.734-0.007-0.014-0.004-0.033 0.007-0.049 0.016-0.023 0.052-0.037 0.093-0.037 0.039 0 0.063 0.019 0.076 0.053 0.109 0.349 0.506 0.529 0.847 0.529h0.167c0.126 0 0.154-0.024 0.154-0.131v-2.176c0-0.203-0.015-0.286-0.424-0.334-0.033-0.006-0.056-0.043-0.056-0.088 0-0.05 0.027-0.088 0.063-0.088h1.33c0.031 0 0.064 0.025 0.064 0.088 0 0.049-0.023 0.083-0.061 0.092-0.405 0.044-0.421 0.127-0.421 0.33v2.176c0 0.107 0.029 0.131 0.156 0.131h0.202c0.43 0 0.626-0.137 0.745-0.529 0.01-0.03 0.039-0.053 0.073-0.053 0.046 0 0.077 0.013 0.096 0.037 0.008 0.015 0.011 0.032 0.007 0.049"/><path d="m312.86 445.01c-0.033 0.049-0.127 0.072-0.163 0.013-0.153-0.325-0.519-0.568-0.853-0.568h-0.469c-0.144 0-0.219 0.074-0.219 0.225v1.028h0.513c0.195 0 0.319-0.03 0.37-0.443 0-0.038 0.04-0.066 0.09-0.066 0.044 0 0.09 0.028 0.09 0.066v1.064c0 0.035-0.038 0.064-0.09 0.064-0.053 0-0.09-0.026-0.09-0.06-0.05-0.406-0.167-0.426-0.37-0.426h-0.513v0.928c0 0.19 0.119 0.229 0.219 0.229h0.435c0.332 0 0.552-0.162 0.652-0.488 0.009-0.023 0.036-0.048 0.075-0.048 0.041 0 0.076 0.011 0.093 0.034 0.011 0.016 0.015 0.034 0.01 0.054-0.068 0.225-0.108 0.408-0.142 0.647l-0.003 0.024h-2.252c-0.038 0-0.065-0.036-0.065-0.089s0.026-0.091 0.06-0.091h0.002c0.416-0.05 0.416-0.14 0.416-0.336v-2.028c0-0.189 0-0.284-0.418-0.332-0.037-0.007-0.06-0.04-0.06-0.088 0-0.063 0.033-0.091 0.065-0.091h2.334l0.007 0.02c0.079 0.243 0.159 0.449 0.283 0.708 0.007 0.016 0.003 0.034-0.007 0.05"/><path d="m318.17 447.11c0.036 0 0.064 0.041 0.064 0.09 0 0.044-0.027 0.09-0.064 0.09h-1.297c-0.036 0-0.063-0.036-0.063-0.09 0-0.053 0.024-0.09 0.06-0.09 0.383-0.046 0.383-0.117 0.383-0.322v-0.912h-1.586v0.912c0 0.205 0 0.276 0.38 0.322 0.032 0 0.065 0.029 0.065 0.09 0 0.054-0.027 0.09-0.065 0.09h-1.297c-0.037 0-0.063-0.046-0.063-0.09 0-0.049 0.027-0.09 0.059-0.09h0.001c0.402-0.05 0.422-0.123 0.422-0.336v-2.028c0-0.202-0.017-0.285-0.426-0.332-0.033-0.009-0.056-0.044-0.056-0.089 0-0.051 0.027-0.091 0.063-0.091h1.297c0.032 0 0.065 0.028 0.065 0.091 0 0.049-0.023 0.08-0.062 0.089-0.383 0.044-0.383 0.111-0.383 0.32v0.943h1.586v-0.943c0-0.209 0-0.276-0.385-0.32-0.037-0.009-0.058-0.04-0.058-0.089 0-0.063 0.031-0.091 0.063-0.091h1.297c0.036 0 0.064 0.04 0.064 0.091 0 0.045-0.024 0.08-0.063 0.089-0.403 0.047-0.419 0.13-0.419 0.332v2.028c0 0.213 0.02 0.286 0.418 0.336"/><path d="m319.9 444.36c-0.647 0-1.08 0.558-1.08 1.383 0 0.704 0.335 1.413 1.08 1.413 0.649 0 1.087-0.568 1.087-1.413 0-0.825-0.438-1.383-1.087-1.383m0 2.995c-0.935 0-1.613-0.679-1.613-1.612 0-0.931 0.663-1.579 1.613-1.579 0.954 0 1.619 0.648 1.619 1.579 0 0.947-0.665 1.612-1.619 1.612"/><path d="m324.77 447.29h-1.054c-0.04 0-0.066-0.046-0.066-0.09 0-0.049 0.03-0.09 0.06-0.09h0.002c0.414-0.05 0.43-0.133 0.43-0.336v-1.309c0-0.692-0.277-1.047-0.822-1.047-0.408 0-0.823 0.117-0.823 0.995v1.361c0 0.213 0.019 0.286 0.418 0.336 0.036 0 0.063 0.041 0.063 0.09 0 0.044-0.026 0.09-0.063 0.09h-1.332c-0.036 0-0.064-0.036-0.064-0.09 0-0.062 0.033-0.09 0.061-0.09 0.418-0.05 0.418-0.142 0.418-0.336v-1.419c0-0.747 0.468-1.19 1.252-1.19 0.685 0 1.095 0.472 1.095 1.257v1.352c0 0.203 0.015 0.286 0.425 0.336 0.036 0 0.066 0.041 0.066 0.09 0 0.044-0.027 0.09-0.066 0.09"/><path d="m326.13 446.02c-0.32 0.186-0.624 0.365-0.624 0.638 0 0.306 0.192 0.495 0.497 0.495 0.324 0 0.493-0.169 0.586-0.582 0.004-0.026 0.024-0.059 0.095-0.059 0.03 0 0.061 0.014 0.074 0.033 0.01 0.01 0.013 0.026 0.01 0.036-0.036 0.246-0.05 0.43-0.067 0.665l-0.003 0.027h-0.029c-0.129 0-0.216 0.02-0.309 0.037-0.097 0.022-0.199 0.042-0.353 0.042-0.615 0-0.947-0.447-0.947-0.864 0-0.457 0.392-0.684 0.771-0.903 0.33-0.19 0.641-0.37 0.641-0.685 0-0.349-0.183-0.543-0.516-0.543-0.422 0-0.627 0.187-0.779 0.709-0.015 0.054-0.067 0.054-0.084 0.054-0.054 0-0.094-0.025-0.093-0.068 0.023-0.216 0.043-0.511 0.052-0.73l0.001-0.03h0.029c0.153 0 0.267-0.028 0.39-0.061 0.133-0.035 0.272-0.07 0.466-0.07 0.591 0 0.973 0.379 0.973 0.964 0 0.439-0.415 0.682-0.781 0.895"/><path d="m329.81 445.01c-0.02 0.029-0.059 0.047-0.099 0.047-0.01 0-0.044 0-0.065-0.034-0.152-0.325-0.518-0.568-0.852-0.568h-0.47c-0.146 0-0.219 0.074-0.219 0.225v1.028h0.514c0.195 0 0.317-0.03 0.37-0.443 0-0.038 0.04-0.066 0.089-0.066 0.044 0 0.091 0.028 0.091 0.066v1.064c0 0.035-0.04 0.064-0.091 0.064-0.062 0-0.089-0.034-0.089-0.06-0.05-0.406-0.169-0.426-0.37-0.426h-0.514v0.928c0 0.19 0.119 0.229 0.219 0.229h0.436c0.332 0 0.551-0.162 0.652-0.488 0.009-0.023 0.036-0.048 0.076-0.048s0.075 0.011 0.092 0.034c0.011 0.016 0.015 0.034 0.01 0.054-0.069 0.225-0.108 0.408-0.142 0.647l-0.004 0.024h-2.251c-0.038 0-0.065-0.036-0.065-0.089s0.026-0.091 0.06-0.091c0.418-0.05 0.418-0.14 0.418-0.336v-2.028c0-0.189 0-0.284-0.419-0.332-0.037-0.007-0.059-0.04-0.059-0.088 0-0.063 0.032-0.091 0.065-0.091h2.332l0.009 0.02c0.077 0.243 0.159 0.449 0.282 0.708 0.007 0.016 0.004 0.034-0.006 0.05"/></g></g></g></svg>
